<svg width="16" height="16" fill="none" xmlns="http://www.w3.org/2000/svg"><path d="M3.45 2.167c.05.741.175 1.466.375 2.158l-1 1c-.342-1-.558-2.058-.633-3.158H3.45zm8.217 10.016c.708.2 1.433.325 2.166.375V13.8a12.856 12.856 0 01-3.166-.625l1-.992zM4.25.5H1.333a.836.836 0 00-.833.833C.5 9.158 6.842 15.5 14.667 15.5a.836.836 0 00.833-.833v-2.909a.836.836 0 00-.833-.833 9.506 9.506 0 01-2.975-.475.7.7 0 00-.259-.042.854.854 0 00-.591.242l-1.834 1.833a12.624 12.624 0 01-5.491-5.491L5.35 5.158a.836.836 0 00.208-.85 9.467 9.467 0 01-.475-2.975A.836.836 0 004.25.5z" fill="#0E9AF7"/></svg>